<?xml version="1.0" standalone="no"?>
<!DOCTYPE svg PUBLIC "-//W3C//DTD SVG 20010904//EN"
 "http://www.w3.org/TR/2001/REC-SVG-20010904/DTD/svg10.dtd">
<svg version="1.0" xmlns="http://www.w3.org/2000/svg"
 width="300.000000pt" height="300.000000pt" viewBox="0 0 300.000000 300.000000"
 preserveAspectRatio="xMidYMid meet">
<metadata>
Created by potrace 1.11, written by Peter Selinger 2001-2013
</metadata>
<g transform="translate(0.000000,300.000000) scale(0.100000,-0.100000)"
fill="#000000" stroke="none">
<path d="M0 1500 l0 -1480 1500 0 1500 0 0 1480 0 1480 -1500 0 -1500 0 0
-1480z m1390 700 l0 -610 -607 2 -608 3 -3 608 -2 607 610 0 610 0 0 -610z
m1430 0 l0 -610 -607 2 -608 3 -3 608 -2 607 610 0 610 0 0 -610z m-1430
-1405 l0 -605 -610 0 -610 0 0 605 0 605 610 0 610 0 0 -605z m1430 0 l0 -605
-610 0 -610 0 0 605 0 605 610 0 610 0 0 -605z"/>
<path d="M298 2665 c-14 -15 4 -25 42 -25 72 0 71 6 68 -442 -2 -304 -6 -399
-16 -410 -7 -9 -28 -19 -47 -22 -81 -16 -19 -24 228 -31 224 -6 272 -4 332 9
224 53 365 238 365 480 0 208 -124 372 -320 424 -60 16 -638 30 -652 17z m523
-81 c107 -31 200 -111 245 -209 31 -68 45 -180 34 -270 -17 -127 -38 -174
-105 -233 -65 -57 -128 -77 -245 -77 -107 0 -157 15 -171 52 -5 13 -9 188 -9
388 l0 364 23 5 c38 8 171 -3 228 -20z"/>
<path d="M2183 2670 c-76 -16 -141 -65 -177 -137 -18 -36 -21 -120 -6 -175 17
-60 90 -148 191 -230 108 -88 141 -136 142 -208 1 -74 -40 -122 -120 -141 -57
-13 -136 13 -166 54 -27 36 -47 88 -47 123 0 14 -6 24 -14 24 -11 0 -16 -23
-21 -93 -4 -52 -6 -102 -4 -113 2 -10 22 -28 44 -39 33 -16 60 -20 150 -20
125 1 158 11 225 72 58 52 83 110 82 194 0 120 -43 188 -199 316 -56 46 -112
97 -123 113 -68 95 -8 204 111 203 82 -1 140 -49 154 -126 4 -21 12 -36 19
-34 7 2 11 38 11 103 l0 99 -55 12 c-64 13 -138 14 -197 3z"/>
<path d="M328 1234 c-13 -13 3 -24 35 -24 18 0 43 -7 55 -16 l22 -15 -1 -392
c-1 -216 -4 -403 -8 -417 -5 -19 -16 -27 -49 -34 -23 -6 -42 -13 -42 -18 0 -4
83 -8 185 -8 182 0 231 9 138 27 -43 7 -49 12 -60 43 -7 20 -12 94 -12 173
l-1 137 59 0 c68 0 68 -1 171 -155 78 -116 119 -165 169 -197 43 -27 51 -28
163 -28 117 0 153 11 81 25 -85 15 -149 75 -335 315 l-66 85 52 56 c73 79 96
131 96 222 0 64 -4 79 -30 121 -23 36 -44 53 -88 74 -56 26 -61 27 -292 30
-129 2 -238 0 -242 -4z m407 -76 c89 -45 127 -170 90 -294 -8 -29 -28 -62 -45
-79 -28 -27 -38 -30 -93 -30 -104 0 -97 -15 -97 214 0 199 0 200 23 204 29 6
96 -3 122 -15z"/>
<path d="M2192 1240 c-168 -3 -273 -9 -275 -15 -1 -5 18 -13 42 -16 26 -3 49
-13 57 -24 18 -24 20 -764 3 -814 -9 -26 -18 -32 -50 -37 -21 -4 -39 -10 -39
-14 0 -8 533 -22 554 -14 21 8 26 28 33 117 5 65 4 79 -7 75 -8 -2 -18 -20
-22 -39 -13 -51 -47 -76 -115 -84 -72 -8 -142 7 -165 36 -16 18 -18 44 -18
190 l0 169 88 0 c121 0 133 -8 159 -99 9 -34 21 11 27 102 5 81 4 97 -8 97 -8
0 -16 -6 -18 -12 -3 -9 -40 -14 -126 -16 l-122 -4 0 167 0 168 99 -5 c117 -6
147 -20 157 -73 6 -35 21 -46 29 -22 2 6 6 49 10 95 5 65 4 82 -7 80 -7 -1
-136 -5 -286 -8z"/>
</g>
</svg>
